<svg version="1.0" xmlns="http://www.w3.org/2000/svg" width="2048" height="2048" viewBox="0 0 1536 1536"><path d="M365.8 486.9L211.1 641.6l98 97.4c53.9 53.6 123.7 123 155.1 154.2 31.9 31.8 57.5 56.5 58.1 56.1 1.1-.7 19-18.4 103.6-102.2 27.2-27 53.4-52.9 58.2-57.6l8.8-8.6-45.9-46c-25.2-25.2-46.4-45.9-47.1-45.9-.6 0-6.9 5.6-13.8 12.4-51.6 50.9-63.7 62.6-64.8 62.6-.4 0-7.3-6.5-15.2-14.5-8-8-14.5-14.5-14.6-14.5-.1 0-56.3-55.4-79.3-78.3L397 641.6l4.2-4.4c4.4-4.4 119.6-119.5 120.2-120 .5-.4 126 125.3 147.6 147.8 21.1 21.9 19.6 20.5 41.1 41 20.2 19.3 19.1 18.3 25.1 25.1 2.5 3 12.4 13.2 22 22.6 9.5 9.5 46.3 46.1 81.8 81.3 35.5 35.3 75.6 75.2 89.3 88.7 13.6 13.5 24.7 24.9 24.7 25.4 0 1.3 2.4.4 5-1.8 1.4-1.3 34.3-33.9 73.2-72.5C1192.6 714.3 1265 642.1 1265 641.5c0-.9-308.9-309.5-309.8-309.5-1 0-10.3 9-9.4 9 .4 0 0 .5-.8 1s-37.4 36.8-81.2 80.6L784 502.4l46.2 46.2c38.5 38.5 46.5 46.1 47.7 45.1.9-.7 18.6-18.2 39.4-39.1l37.9-37.8 62.4 62.3 62.4 62.4-40.7 40.2c-22.5 22.2-40.8 40.3-40.8 40.3s-9.8 9.6-21.7 21.4l-21.6 21.4-41.2-40.7c-63.4-62.5-179.2-178.3-181.8-181.6-3.8-5.1-208.6-209.6-210.2-210-.9-.2-63.7 61.9-156.2 154.4z"/><path d="M1369.7 643c-.8.8-16.6 16.3-35.1 34.5-18.6 18.1-41.8 40.9-51.6 50.5-9.8 9.6-31.6 31-48.4 47.5-16.9 16.5-41.3 40.5-54.4 53.3-13 12.9-36.7 36-52.5 51.5-15.8 15.5-38.2 37.4-49.7 48.7-11.4 11.3-36.9 36.2-56.5 55.5-19.7 19.2-42.5 41.6-50.7 49.7-8.2 8.2-15.3 14.8-15.6 14.8-.4 0-2.6-2.1-5.1-4.8-2.4-2.6-8.7-9.2-14-14.8-10.4-10.9-31.6-33.4-42.7-45.2-3.8-4.1-9.6-10.2-12.9-13.7-3.3-3.4-11.2-11.8-17.5-18.5-6.3-6.8-14-14.9-17-18.1-3-3.1-10.7-11.2-17-17.9-6.3-6.8-14.2-15.1-17.5-18.6-5.3-5.6-18.3-19.3-32-33.9-4.2-4.5-26.1-27.6-37.5-39.6l-4.5-4.7-1.6 2.5c-.9 1.4-8.8 10-17.5 19-8.8 9.1-17.9 18.7-20.4 21.3-2.5 2.6-12 12.5-21.2 22.1-17.8 18.7-23.3 24.3-47.6 49.8-8.6 9-18.2 19-21.2 22.1-3 3.1-12.2 12.8-20.5 21.4-8.2 8.7-19 20-24 25.1-22.2 23.1-37.5 39.2-39.4 41.4-2 2.3-2.2 2.4-4.1.6-2.1-1.9-64.4-63.8-247.4-246-57.4-57.2-106-105.5-107.9-107.3-3.3-3.2-9.7-5.1-9.7-3 0 .5-.8.5-1.7-.1-1-.5-2.6-.5-4.1 0-1.3.5-2.1.5-1.8.1.3-.5-1.5-.6-3.9-.2-2.5.4-4.5.4-4.5.1 0-.3-1.1-.6-2.5-.6s-2.5.4-2.5.8-.8.4-1.7-.2c-1-.5-2.6-.5-3.9-.1-1.2.5-2.5.6-2.8.3-1-1-6.5-.9-5.9.1.4.5.1.6-.6.2-1.7-1.1-12.1-1.3-12.1-.3 0 .4-.8.4-1.7-.2-1-.5-2.6-.5-4.1 0-1.3.5-2.1.5-1.8.1.3-.5-1.5-.6-3.9-.2-2.5.4-4.5.3-4.5-.1s-1.3-.4-3 .1c-1.6.5-3 .5-3 .1 0-.8-5.4-.6-6.9.3-.5.4-1.2.2-1.6-.3-.4-.7-1.5-.7-3-.1-1.4.5-2.5.6-2.5.2 0-.8-7.5-.6-8.9.3-.5.3-1.2.2-1.4-.3-.6-.9-7.1-.7-8.6.3-.6.3-1.1.2-1.1-.4 0-.6-1.1-.6-3-.1-1.6.5-3 .6-3 .2 0-.4-1.3-.7-2.9-.7-1.6 0-2.7.3-2.5.7.3.4-.5.4-1.8-.1-1.2-.4-3.7-.5-5.5-.1-1.8.5-3.5.5-3.7.1-.5-.8-7.1-.6-8.5.4-.6.3-1.1.2-1.1-.4 0-.6-1.1-.6-3-.1-1.6.5-3 .6-3 .2 0-.4-1.3-.7-2.9-.7-1.6 0-2.7.3-2.4.7.2.5-.6.4-1.9 0-3.5-1.3-5.8-.4-5.8 2.3 0 2.3 3.3 5.8 64 67.5 9.6 9.8 33.1 33.7 52.2 53.2 19.1 19.4 44.5 45.3 56.5 57.5 12 12.2 37.1 37.7 55.8 56.8 18.7 19 44.7 45.5 57.8 58.8 45.2 46 127.2 129.7 129.3 132 .6.7 2 1.9 3 2.8 1.1.9 14.6 14.6 30.1 30.5 15.5 15.9 38.2 39.1 50.5 51.6l22.4 22.8 22.2-22.7c12.2-12.5 22.2-23 22.2-23.4 0-.4.9-1.1 2-1.4 1.1-.3 2-1 2-1.3 0-.4 7.9-8.8 17.6-18.7 9.6-9.9 26.9-27.5 38.2-39.1 11.4-11.7 34.4-35.2 51.2-52.4 16.8-17.2 36.7-37.5 44.3-45.2 9.7-9.9 13.6-14.5 13.2-15.7-.3-.8-.3-1.2.1-.8.4.4 1.3.2 2-.4 1.3-1.1 3.3.8 48.9 47.6 13.8 14.2 32.2 33 41 42 8.8 8.9 29.1 29.6 45 46 16 16.3 38.1 39 49.3 50.4 11.1 11.3 23.5 23.8 27.3 27.8l7.1 7.2 26-26.2c14.2-14.4 49.7-50.3 78.8-79.7 29.1-29.4 68.5-69.3 87.5-88.5 19-19.3 38.3-38.7 42.7-43.3 4.4-4.5 8.4-8.2 8.8-8.2.5 0 1-.5 1.2-1 .3-1 29.4-30.6 131.8-134 34.6-35 70.4-71.2 170.8-172.8 15.4-15.5 27.9-28.3 27.8-28.3 0-.1-36-.2-79.8-.3-69.9-.1-79.9.1-81.1 1.4z"/></svg>