<svg xmlns="http://www.w3.org/2000/svg" viewBox="0 0 96 58"><linearGradient id="a" gradientUnits="userSpaceOnUse" x1="32.564" y1="32.195" x2="43.25" y2="32.195"><stop offset="0" stop-color="#231257"/><stop offset=".377" stop-color="#532973"/><stop offset="1" stop-color="#a952a5"/></linearGradient><path fill="url(#a)" d="M32.6 28.8v11.6l10.7-10.6-5.8-5.8z"/><linearGradient id="b" gradientUnits="userSpaceOnUse" x1="32.564" y1="13.995" x2="45.62" y2="13.995"><stop offset="0" stop-color="#231257"/><stop offset=".377" stop-color="#532973"/><stop offset="1" stop-color="#a952a5"/></linearGradient><path fill="url(#b)" d="M32.6 1.7v11.6l7.8 7.8 2.7 2.8 2.5 2.4V14.7z"/><linearGradient id="c" gradientUnits="userSpaceOnUse" x1="12.618" y1="21.053" x2="32.884" y2="21.053"><stop offset="0" stop-color="#231257"/><stop offset=".377" stop-color="#532973"/><stop offset="1" stop-color="#a952a5"/></linearGradient><path fill="url(#c)" d="M32.6 28.8l-7.8-7.7 7.8-7.8V1.7L13.2 21.1l19.4 19.3z"/><linearGradient id="d" gradientUnits="userSpaceOnUse" x1="12.618" y1="40.733" x2="32.884" y2="40.733"><stop offset="0" stop-color="#231257"/><stop offset=".377" stop-color="#532973"/><stop offset="1" stop-color="#a952a5"/></linearGradient><path fill="url(#d)" d="M32.6 46.4L10.1 24H-.3l32.9 33.5V46.4z"/><linearGradient id="e" gradientUnits="userSpaceOnUse" x1="32.576" y1="44.999" x2="45.861" y2="44.999"><stop offset="0" stop-color="#231257"/><stop offset=".377" stop-color="#532973"/><stop offset="1" stop-color="#a952a5"/></linearGradient><path fill="url(#e)" d="M32.6 46.4v11.1l13.3-13.6V32.5z"/><g><linearGradient id="f" gradientUnits="userSpaceOnUse" x1="61.33" y1="21.053" x2="86.642" y2="21.053"><stop offset="0" stop-color="#231257"/><stop offset=".377" stop-color="#532973"/><stop offset="1" stop-color="#a952a5"/></linearGradient><path fill="url(#f)" d="M59.7 1.7v11.6l7.8 7.8-7.8 7.7v11.6l19.4-19.3z"/><linearGradient id="g" gradientUnits="userSpaceOnUse" x1="61.33" y1="39.283" x2="86.642" y2="39.283"><stop offset="0" stop-color="#231257"/><stop offset=".377" stop-color="#532973"/><stop offset="1" stop-color="#a952a5"/></linearGradient><path fill="url(#g)" d="M85.7 21.1l-26 25.5-.1-.1v10.9l.1.1 36-36.4z"/></g><g><linearGradient id="h" gradientUnits="userSpaceOnUse" x1="49.049" y1="9.911" x2="59.735" y2="9.911"><stop offset="0" stop-color="#231257"/><stop offset=".377" stop-color="#532973"/><stop offset="1" stop-color="#a952a5"/></linearGradient><path fill="url(#h)" d="M49 12.4l5.8 5.8 4.9-4.9V1.7z"/><linearGradient id="i" gradientUnits="userSpaceOnUse" x1="45.62" y1="27.581" x2="59.735" y2="27.581"><stop offset="0" stop-color="#231257"/><stop offset=".377" stop-color="#532973"/><stop offset="1" stop-color="#a952a5"/></linearGradient><path fill="url(#i)" d="M48.9 18.1l-2.8-2.8-.5-.6v11.6l.5.6 13.6 13.5V28.8l-7.8-7.7z"/><linearGradient id="j" gradientUnits="userSpaceOnUse" x1="45.861" y1="44.795" x2="59.621" y2="44.795"><stop offset="0" stop-color="#231257"/><stop offset=".377" stop-color="#532973"/><stop offset="1" stop-color="#a952a5"/></linearGradient><path fill="url(#j)" d="M45.9 32.5v11.4l.2-.3 13.5 13.8V46.5L46.1 32.2z"/></g></svg>