<svg id="Слой_1" xmlns="http://www.w3.org/2000/svg" viewBox="0 0 1509 143"><style>.st10{fill:#fff}</style><linearGradient id="SVGID_1_" gradientUnits="userSpaceOnUse" x1="81.314" y1="76.03" x2="107.73" y2="76.03"><stop offset="0" stop-color="#231257"/><stop offset=".377" stop-color="#532973"/><stop offset="1" stop-color="#a952a5"/></linearGradient><path fill="url(#SVGID_1_)" d="M81.3 67.7v28.7L107.7 70 93.4 55.7z"/><linearGradient id="SVGID_2_" gradientUnits="userSpaceOnUse" x1="81.314" y1="31.04" x2="113.587" y2="31.04"><stop offset="0" stop-color="#231257"/><stop offset=".377" stop-color="#532973"/><stop offset="1" stop-color="#a952a5"/></linearGradient><path fill="url(#SVGID_2_)" d="M81.3.6v28.6l19.3 19.3 6.9 6.9 6.1 6.1V32.8z"/><linearGradient id="SVGID_3_" gradientUnits="userSpaceOnUse" x1="32.008" y1="48.486" x2="82.105" y2="48.486"><stop offset="0" stop-color="#231257"/><stop offset=".377" stop-color="#532973"/><stop offset="1" stop-color="#a952a5"/></linearGradient><path fill="url(#SVGID_3_)" d="M81.3 67.7L62.1 48.5l19.2-19.3V.6L33.4 48.5l47.9 47.9z"/><linearGradient id="SVGID_4_" gradientUnits="userSpaceOnUse" x1="32.008" y1="97.133" x2="82.105" y2="97.133"><stop offset="0" stop-color="#231257"/><stop offset=".377" stop-color="#532973"/><stop offset="1" stop-color="#a952a5"/></linearGradient><path fill="url(#SVGID_4_)" d="M81.3 111.2L25.8 55.7H0l81.3 82.9v-27.4z"/><linearGradient id="SVGID_5_" gradientUnits="userSpaceOnUse" x1="81.344" y1="107.679" x2="114.184" y2="107.679"><stop offset="0" stop-color="#231257"/><stop offset=".377" stop-color="#532973"/><stop offset="1" stop-color="#a952a5"/></linearGradient><path fill="url(#SVGID_5_)" d="M81.3 111.2v27.4l32.9-33.6V76.8z"/><g><linearGradient id="SVGID_6_" gradientUnits="userSpaceOnUse" x1="152.421" y1="48.486" x2="214.992" y2="48.486"><stop offset="0" stop-color="#231257"/><stop offset=".377" stop-color="#532973"/><stop offset="1" stop-color="#a952a5"/></linearGradient><path fill="url(#SVGID_6_)" d="M148.5.6v28.6l19.2 19.3-19.2 19.2v28.7l47.9-47.9z"/><linearGradient id="SVGID_7_" gradientUnits="userSpaceOnUse" x1="152.421" y1="93.55" x2="214.992" y2="93.55"><stop offset="0" stop-color="#231257"/><stop offset=".377" stop-color="#532973"/><stop offset="1" stop-color="#a952a5"/></linearGradient><path fill="url(#SVGID_7_)" d="M212.7 48.5l-64.2 63.1-.3-.3v27l.3.3 88.8-90.1z"/></g><g><linearGradient id="SVGID_8_" gradientUnits="userSpaceOnUse" x1="122.065" y1="20.944" x2="148.48" y2="20.944"><stop offset="0" stop-color="#231257"/><stop offset=".377" stop-color="#532973"/><stop offset="1" stop-color="#a952a5"/></linearGradient><path fill="url(#SVGID_8_)" d="M122.1 27l14.3 14.3 12.1-12.1V.6z"/><linearGradient id="SVGID_9_" gradientUnits="userSpaceOnUse" x1="113.587" y1="64.623" x2="148.48" y2="64.623"><stop offset="0" stop-color="#231257"/><stop offset=".377" stop-color="#532973"/><stop offset="1" stop-color="#a952a5"/></linearGradient><path fill="url(#SVGID_9_)" d="M121.8 41.1l-6.9-6.9-1.3-1.4v28.7l1.3 1.3 33.6 33.6V67.7l-19.3-19.2z"/><linearGradient id="SVGID_10_" gradientUnits="userSpaceOnUse" x1="114.184" y1="107.176" x2="148.197" y2="107.176"><stop offset="0" stop-color="#231257"/><stop offset=".377" stop-color="#532973"/><stop offset="1" stop-color="#a952a5"/></linearGradient><path fill="url(#SVGID_10_)" d="M114.2 76.8V105l.7-.8 33.3 34.1v-27L114.9 76z"/></g><g><path class="st10" d="M288.2 58.5h19.6l17.2 56.4 18.7-56.6h15.7l18.7 56.6 17.2-56.4h19.1L386 142.3h-15.9l-18.8-54.5-18.8 54.5h-15.9l-28.4-83.8zM425.1 58.5h18.3v32.9h33.8V58.5h18.3v83.2h-18.3v-33.4h-33.8v33.4h-18.3V58.5zM513.4 58.5h18.3v83.2h-18.3V58.5zM549.5 58.5h19.7l21.9 35.2L613 58.5h19.7v83.2h-18.2V87.4L591.1 123h-.5l-23.2-35.2v54h-18V58.5zM644 129.6l10.8-13c7.5 6.2 15.3 10.1 24.9 10.1 7.5 0 12-3 12-8.1 0-4.6-2.9-7-16.8-10.6-16.8-4.3-27.6-8.9-27.6-25.7 0-15.1 12.1-25.1 29.1-25.1 12.1 0 22.5 3.8 30.9 10.6l-9.5 13.8c-7.4-5.1-14.6-8.2-21.6-8.2s-10.7 3.2-10.7 7.5c0 5.5 3.6 7.3 18 10.9 16.9 4.4 26.4 10.5 26.4 25.2 0 16.5-12.6 25.8-30.6 25.8-12.5.1-25.3-4.3-35.3-13.2zM742.8 108.9l-32-50.4h21.4L752 91.9l20.2-33.4H793l-32 50.1v33.2h-18.3v-32.9zM830.5 129.6l5.8-6.9c8.7 7.8 17 11.8 28.5 11.8 11.2 0 18.6-5.9 18.6-14.4 0-7.7-4.2-12.1-21.6-15.8-19.1-4.2-27.9-10.3-27.9-24.3 0-13.1 11.5-22.7 27.4-22.7 12.1 0 20.8 3.4 29.3 10.2l-5.5 7.3c-7.7-6.3-15.5-9-24-9-10.8 0-17.7 5.9-17.7 13.7 0 7.8 4.3 12.2 22.6 16.2 18.6 4 27.1 10.8 27.1 23.8 0 14.3-11.9 23.5-28.4 23.5-13.4-.1-24.2-4.5-34.2-13.4zM905.4 100.1c0-23 17.2-43.1 42.6-43.1 25.3 0 42.3 19.9 42.3 43.1 0 23-17.2 43.1-42.6 43.1-25.3-.1-42.3-19.9-42.3-43.1zm75.2 0c0-18.9-13.8-34.4-32.8-34.4s-32.6 15.2-32.6 34.4c0 18.9 13.8 34.4 32.8 34.4s32.6-15.3 32.6-34.4zM1007.2 58.5h59.8v8.7h-50.4v29.7h45.1v8.6h-45.1v36.3h-9.4V58.5zM1104.3 67.2h-27.9v-8.7h65.4v8.7h-27.9v74.6h-9.5V67.2zM1149.9 58.5h10.2l23.8 69.3 22.8-69.6h7.7l22.8 69.6 23.8-69.3h9.9l-29.7 83.8h-8l-22.8-67.6-23 67.6h-7.8l-29.7-83.8zM1305.1 57.9h8.8l37.9 83.8h-10.1l-9.8-22h-45.3l-9.9 22h-9.6l38-83.8zm23.2 53.4l-18.9-42.5-19 42.5h37.9zM1365.3 58.5h35.8c10.2 0 18.4 3.1 23.7 8.3 4 4 6.4 9.9 6.4 16.6 0 13.8-9.5 21.9-22.6 24.3l25.6 34h-11.5l-24.1-32.3h-23.8v32.3h-9.4V58.5zm35 42.4c12.5 0 21.4-6.4 21.4-17.4 0-10.2-7.8-16.4-21.3-16.4h-25.7v33.8h25.6zM1448.3 58.5h60.2V67h-50.8v28.4h45.4v8.6h-45.4v29.1h51.4v8.6h-60.8V58.5z"/></g></svg>