<?xml version="1.0" standalone="no"?>
<!DOCTYPE svg PUBLIC "-//W3C//DTD SVG 20010904//EN"
 "http://www.w3.org/TR/2001/REC-SVG-20010904/DTD/svg10.dtd">
<svg version="1.0" xmlns="http://www.w3.org/2000/svg"
 width="1536.000000pt" height="1536.000000pt" viewBox="0 0 1536.000000 1536.000000"
 preserveAspectRatio="xMidYMid meet">
<metadata>
Created by potrace 1.11, written by Peter Selinger 2001-2013
</metadata>
<g transform="translate(0.000000,1536.000000) scale(0.100000,-0.100000)"
fill="#000000" stroke="none">
<path d="M3658 10491 l-1547 -1547 980 -974 c539 -536 1237 -1230 1551 -1542
319 -318 575 -565 581 -561 11 7 190 184 1036 1022 272 270 534 529 582 576
l88 86 -459 460 c-252 252 -464 459 -471 459 -6 0 -69 -56 -138 -124 -516
-509 -637 -626 -648 -626 -4 0 -73 65 -152 145 -80 80 -145 145 -146 145 -1 0
-563 554 -793 783 l-152 151 42 44 c44 44 1196 1195 1202 1200 5 4 1260 -1253
1476 -1478 211 -219 196 -205 411 -410 202 -193 191 -183 251 -251 25 -30 124
-132 220 -226 95 -95 463 -461 818 -813 355 -353 756 -752 893 -887 136 -135
247 -249 247 -254 0 -13 24 -4 50 18 14 13 343 339 732 725 1614 1605 2338
2327 2338 2333 0 9 -3089 3095 -3098 3095 -10 0 -103 -90 -94 -90 4 0 0 -5 -8
-10 -8 -5 -374 -368 -812 -806 l-798 -798 462 -462 c385 -385 465 -461 477
-451 9 7 186 182 394 391 l379 378 624 -623 624 -624 -407 -402 c-225 -222
-408 -403 -408 -403 0 0 -98 -96 -217 -214 l-216 -214 -412 407 c-634 625
-1792 1783 -1818 1816 -38 51 -2086 2096 -2102 2100 -9 2 -637 -619 -1562
-1544z"/>
<path d="M13697 8930 c-8 -8 -166 -163 -351 -345 -186 -181 -418 -409 -516
-505 -98 -96 -316 -310 -484 -475 -169 -165 -413 -405 -544 -533 -130 -129
-367 -360 -525 -515 -158 -155 -382 -374 -497 -487 -114 -113 -369 -362 -565
-555 -197 -192 -425 -416 -507 -497 -82 -82 -153 -148 -156 -148 -4 0 -26 21
-51 48 -24 26 -87 92 -140 148 -104 109 -316 334 -427 452 -38 41 -96 102
-129 137 -33 34 -112 118 -175 185 -63 68 -140 149 -170 181 -30 31 -107 112
-170 179 -63 68 -142 151 -175 186 -53 56 -183 193 -320 339 -42 45 -261 276
-375 396 l-45 47 -16 -25 c-9 -14 -88 -100 -175 -190 -88 -91 -179 -187 -204
-213 -25 -26 -120 -125 -212 -221 -178 -187 -233 -243 -476 -498 -86 -90 -182
-190 -212 -221 -30 -31 -122 -128 -205 -214 -82 -87 -190 -200 -240 -251 -222
-231 -375 -392 -394 -414 -20 -23 -22 -24 -41 -6 -21 19 -644 638 -2474 2460
-574 572 -1060 1055 -1079 1073 -33 32 -97 51 -97 30 0 -5 -8 -5 -17 1 -10 5
-26 5 -41 0 -13 -5 -21 -5 -18 -1 3 5 -15 6 -39 2 -25 -4 -45 -4 -45 -1 0 3
-11 6 -25 6 -14 0 -25 -4 -25 -8 0 -4 -8 -4 -17 2 -10 5 -26 5 -39 1 -12 -5
-25 -6 -28 -3 -10 10 -65 9 -59 -1 4 -5 1 -6 -6 -2 -17 11 -121 13 -121 3 0
-4 -8 -4 -17 2 -10 5 -26 5 -41 0 -13 -5 -21 -5 -18 -1 3 5 -15 6 -39 2 -25
-4 -45 -3 -45 1 0 4 -13 4 -30 -1 -16 -5 -30 -5 -30 -1 0 8 -54 6 -69 -3 -5
-4 -12 -2 -16 3 -4 7 -15 7 -30 1 -14 -5 -25 -6 -25 -2 0 8 -75 6 -89 -3 -5
-3 -12 -2 -14 3 -6 9 -71 7 -86 -3 -6 -3 -11 -2 -11 4 0 6 -11 6 -30 1 -16 -5
-30 -6 -30 -2 0 4 -13 7 -29 7 -16 0 -27 -3 -25 -7 3 -4 -5 -4 -18 1 -12 4
-37 5 -55 1 -18 -5 -35 -5 -37 -1 -5 8 -71 6 -85 -4 -6 -3 -11 -2 -11 4 0 6
-11 6 -30 1 -16 -5 -30 -6 -30 -2 0 4 -13 7 -29 7 -16 0 -27 -3 -24 -7 2 -5
-6 -4 -19 0 -35 13 -58 4 -58 -23 0 -23 33 -58 640 -675 96 -98 331 -337 522
-532 191 -194 445 -453 565 -575 120 -122 371 -377 558 -568 187 -190 447
-455 578 -588 452 -460 1272 -1297 1293 -1320 6 -7 20 -19 30 -28 11 -9 146
-146 301 -305 155 -159 382 -391 505 -516 l224 -228 222 227 c122 125 222 230
222 234 0 4 9 11 20 14 11 3 20 10 20 13 0 4 79 88 176 187 96 99 269 275 382
391 114 117 344 352 512 524 168 172 367 375 443 452 97 99 136 145 132 157
-3 8 -3 12 1 8 4 -4 13 -2 20 4 13 11 33 -8 489 -476 138 -142 322 -330 410
-420 88 -89 291 -296 450 -460 160 -163 381 -390 493 -504 111 -113 235 -238
273 -278 l71 -72 260 262 c142 144 497 503 788 797 291 294 685 693 875 885
190 193 383 387 427 433 44 45 84 82 88 82 5 0 10 5 12 10 3 10 294 306 1318
1340 346 350 704 712 1708 1728 154 155 279 283 278 283 0 1 -360 2 -798 3
-699 1 -799 -1 -811 -14z"/>
</g>
</svg>
